<?xml version="1.0" standalone="no"?>
<!DOCTYPE svg PUBLIC "-//W3C//DTD SVG 20010904//EN"
 "http://www.w3.org/TR/2001/REC-SVG-20010904/DTD/svg10.dtd">
<svg version="1.0" xmlns="http://www.w3.org/2000/svg"
 width="406.000000pt" height="406.000000pt" viewBox="0 0 406.000000 406.000000"
 preserveAspectRatio="xMidYMid meet">
<metadata>
Created by potrace 1.14, written by Peter Selinger 2001-2017
</metadata>
<g transform="translate(0.000000,406.000000) scale(0.100000,-0.100000)"
fill="#000000" stroke="none">
<path d="M1775 4044 c-925 -123 -1643 -842 -1760 -1762 -14 -115 -15 -429 0
-512 3 -19 11 -62 16 -95 54 -319 214 -669 422 -924 86 -105 225 -241 330
-323 272 -210 582 -345 927 -404 127 -21 443 -26 575 -8 919 122 1637 836
1758 1749 15 110 16 449 2 525 -3 19 -11 62 -16 95 -17 103 -68 282 -109 386
-269 673 -851 1142 -1570 1265 -127 21 -443 26 -575 8z"/>
</g>
</svg>
